<?xml version="1.0" encoding="UTF-8"?>
<svg id="Layer_1" data-name="Layer 1" xmlns="http://www.w3.org/2000/svg" viewBox="0 0 600 600">
  <defs>
    <style>
      .cls-1 {
        fill: #d84c3b;
      }

      .cls-1, .cls-2, .cls-3, .cls-4 {
        stroke-width: 0px;
      }

      .cls-2 {
        fill: #f4d45b;
      }

      .cls-3 {
        fill: #1b4500;
      }

      .cls-4 {
        fill: #e87c3c;
      }
    </style>
  </defs>
  <g>
    <path class="cls-1" d="M200.51,239.65c-11.48-1.79-27.6-5.69-44.66-15.06-28.46-15.64-76.21-55.66-68.43-105.34,4.15-26.49,24.18-56.31,53.12-63.02,42.81-9.94,80.43,36.4,94.53,61.22,17.51,30.81,17.53,61.45,16.46,76.46l-51.03,45.74Z"/>
    <path class="cls-1" d="M390.18,343.81c11.48,1.79,27.6,5.69,44.66,15.06,28.46,15.64,76.21,55.66,68.43,105.34-4.15,26.49-24.18,56.31-53.12,63.02-42.81,9.94-80.43-36.4-94.53-61.22-17.51-30.81-17.53-61.45-16.46-76.46l51.03-45.74Z"/>
    <path class="cls-1" d="M243.26,386.56c-1.79,11.48-5.69,27.6-15.06,44.66-15.64,28.46-55.66,76.21-105.34,68.43-26.49-4.15-56.31-24.18-63.02-53.12-9.94-42.81,36.4-80.43,61.22-94.53,30.81-17.51,61.45-17.53,76.46-16.46l45.74,51.03Z"/>
    <path class="cls-1" d="M347.43,196.9c1.79-11.48,5.69-27.6,15.06-44.66,15.64-28.46,55.66-76.21,105.34-68.43,26.49,4.15,56.31,24.18,63.02,53.12,9.94,42.81-36.4,80.43-61.22,94.53-30.81,17.51-61.45,17.53-76.46,16.46l-45.74-51.03Z"/>
    <path class="cls-4" d="M257.15,244.48c-36.26-80.21-129.98-107.37-191.31-70.25C11.93,206.86-9.86,284.9,21.43,341.09c37.4,67.16,131.03,67.89,184.87,40.82,24.33-12.24,40.04-29.91,49.2-42.42l1.66-95.01Z"/>
    <path class="cls-4" d="M342.85,342.01c36.26,80.21,129.98,107.37,191.31,70.25,53.92-32.64,75.71-110.68,44.42-166.86-37.4-67.16-131.03-67.89-184.87-40.82-24.33,12.24-40.04,29.91-49.2,42.42l-1.66,95.01Z"/>
    <path class="cls-4" d="M337.96,257.6c80.21-36.26,107.37-129.98,70.25-191.31C375.58,12.38,297.54-9.41,241.35,21.88c-67.16,37.4-67.89,131.03-40.82,184.87,12.24,24.33,29.91,40.04,42.42,49.2l95.01,1.66Z"/>
    <path class="cls-4" d="M243.78,342.4c-80.21,36.26-107.37,129.98-70.25,191.31,32.64,53.92,110.68,75.71,166.86,44.42,67.16-37.4,67.89-131.03,40.82-184.87-12.24-24.33-29.91-40.04-42.42-49.2l-95.01-1.66Z"/>
    <path class="cls-2" d="M229.63,388.33c29.9,22.3,64.75,18.4,68.93,17.87,59.84-7.61,113.28-74.67,98.82-134.82-17.13-71.27-123.11-105.97-176.88-68.22-54.66,38.37-45.36,144.54,9.13,185.17Z"/>
  </g>
  <path class="cls-3" d="M180.83,376.25v-10.74c4.21-2.34,8.25-4.86,12.14-7.59,3.89-2.72,7.71-5.64,11.44-8.76v-108.34c-4.05-2.02-8.06-4.24-12.02-6.66-3.97-2.41-7.82-5.1-11.56-8.06v-10.51h89.43c14.94,0,27.09,3.58,36.43,10.74,9.34,7.16,14.01,17.2,14.01,30.12,0,6.85-1.44,13.19-4.32,19.03-2.88,5.84-6.69,11.09-11.44,15.76-4.75,4.67-10.08,8.64-15.99,11.91,4.98,10.43,9.88,19.11,14.71,26.04,4.82,6.93,8.32,12.33,12.72,17.63,4.72,5.68,4.4,5.4,17.66,13.62,5.86,3.63,14.15,5.59,22.62,5.52v10.27c-13.86,2.18-25.74,3.2-35.61,2.34-11.98-1.05-18.56-3.19-26.04-7.71-7.47-4.51-14.28-11.52-20.43-21.02-6.15-9.49-12.34-21.95-18.56-37.36h-16.58v41.33c4.2,1.56,8.37,3.27,12.49,5.14,4.12,1.87,8.21,4.05,12.26,6.54l-2.33,10.74h-81.02ZM239.44,293.6h16.58c9.18,0,16.23-2.57,21.13-7.71,4.91-5.14,7.36-12.06,7.36-20.78,0-9.96-2.76-17.55-8.29-22.77-5.53-5.21-12.8-7.82-21.83-7.82h-14.94v59.07Z"/>
  <path class="cls-3" d="M343.8,377.54c-12.66,0-22.71-1.74-30.16-5.21-7.45-3.47-11.17-8.57-11.17-15.29,0-4.26,1.82-8.21,5.46-11.84,3.64-3.64,8.03-6.86,13.19-9.66-2.8-2.35-5.07-5.21-6.8-8.57-1.74-3.36-2.94-6.72-3.61-10.08l2.86-7.22,19.99-6.22c-4.03-1.12-7.79-2.88-11.26-5.29-3.47-2.41-6.24-5.38-8.31-8.9-2.07-3.53-3.11-7.48-3.11-11.84,0-4.14,1.2-8.12,3.61-11.93,2.41-3.81,5.6-7.14,9.57-10,3.98-2.86,8.4-5.1,13.27-6.72,4.87-1.62,9.77-2.44,14.7-2.44,4.48,0,8.71.62,12.69,1.85,3.97,1.23,7.59,2.97,10.83,5.21,3.02-3.13,6.07-6.47,9.16-10,3.08-3.53,5.97-7.19,8.65-11,1.57,1.46,3.02,3.36,4.37,5.71,1.34,2.35,2.46,4.93,3.36,7.73.9,2.8,1.45,5.43,1.68,7.9-3.25,1.01-6.64,2.04-10.17,3.11-3.53,1.07-7.08,1.99-10.67,2.77,1.34,2.02,2.46,4.26,3.36,6.72.9,2.46,1.34,4.93,1.34,7.39,0,5.04-1.49,9.74-4.45,14.11-2.97,4.37-7.05,8.21-12.26,11.51-5.21,3.31-11.12,5.91-17.72,7.81l-20.33,6.38c.45,1.68,1.26,3,2.44,3.95,1.18.95,2.66,1.54,4.45,1.76l40.99,1.68c4.93.11,8.85,1.21,11.76,3.28,2.91,2.07,5.01,4.57,6.3,7.48,1.29,2.91,1.93,5.99,1.93,9.24,0,5.49-1.68,10.47-5.04,14.95-3.36,4.48-7.76,8.34-13.19,11.59-5.43,3.25-11.48,5.74-18.14,7.48-6.67,1.74-13.19,2.6-19.57,2.6ZM326.33,349.48c0,2.91,1.2,5.54,3.61,7.9,2.41,2.35,5.63,4.2,9.66,5.54,4.03,1.34,8.4,2.02,13.1,2.02,4.25,0,8.34-.53,12.26-1.6,3.92-1.07,7.06-2.6,9.41-4.62,2.35-2.02,3.53-4.37,3.53-7.06,0-3.59-.9-5.96-2.69-7.14-1.79-1.18-4.2-1.82-7.23-1.93l-37.8-2.02c-1.12,1.57-2.04,3.13-2.77,4.7-.73,1.57-1.09,2.97-1.09,4.2ZM335.57,275.73c.33,3.92,1.31,7.48,2.94,10.67,1.62,3.19,3.61,5.69,5.96,7.48,2.35,1.79,4.93,2.58,7.73,2.35,2.57-.34,4.65-1.4,6.22-3.19,1.57-1.79,2.66-4.09,3.27-6.89.62-2.8.7-5.88.25-9.24-.23-3.13-1.12-6.1-2.69-8.9-1.57-2.8-3.56-5.04-5.96-6.72-2.41-1.68-5.07-2.41-7.98-2.18-4.03.34-6.78,2.16-8.23,5.46-1.46,3.3-1.96,7.03-1.51,11.17Z"/>
</svg>