<svg version="1.1" id="Layer_1" xmlns="http://www.w3.org/2000/svg" x="0px"
     y="0px"
     width="100%" viewBox="0 0 512 319" enable-background="new 0 0 512 319" xml:space="preserve">
    <path fill="#527ACC" opacity="1.000000" stroke="none"
          d="
M134.000000,0.999999
	C236.354767,1.000000 338.709534,1.000000 441.526184,1.364295
	C437.805603,8.523798 433.626709,15.321218 429.439972,22.113798
	C417.958832,40.740929 406.435913,59.342491 395.033936,78.017914
	C393.371277,80.741219 391.689819,82.111488 388.154602,82.102921
	C328.657837,81.958694 269.158752,82.244087 209.665390,81.773071
	C199.046997,81.688995 190.656143,82.679314 187.255020,94.219215
	C187.213135,94.361336 187.008499,94.447189 186.922485,94.585770
	C175.561386,112.889603 164.200546,131.193588 152.847977,149.502716
	C139.163544,171.572601 125.429688,193.612289 111.879593,215.764359
	C110.235764,218.451752 108.401894,219.065598 105.494728,219.058044
	C70.663338,218.967606 35.831627,218.999832 1.000000,219.000000
	C1.000000,217.933334 1.000000,216.866653 1.285402,215.698151
	C2.719986,214.031982 3.982427,212.537781 5.001168,210.892685
	C18.046633,189.826355 31.020920,168.715912 44.087894,147.662964
	C55.008369,130.068359 66.069305,112.560913 76.991783,94.967522
	C91.951881,70.870544 106.899719,46.765491 121.721375,22.583338
	C126.044487,15.530009 129.919556,8.202066 134.000000,0.999999
z"/>
    <path fill="#DCDFDC" opacity="1.000000" stroke="none"
          d="
M513.000000,105.600006
	C511.679596,107.228348 510.009064,108.239273 509.091064,109.717529
	C494.649597,132.972656 480.223938,156.238800 466.039459,179.650757
	C464.240387,182.620132 462.239014,183.044846 459.264984,183.042007
	C400.318176,182.985626 341.371307,182.999985 282.424469,182.999985
	C263.481689,182.999985 244.538895,182.999985 224.794785,182.999985
	C233.170929,192.229782 241.062714,200.925842 249.293488,209.995453
	C243.250381,219.754700 237.145782,229.585709 231.068512,239.433563
	C219.052139,258.905396 207.038467,278.378876 195.049896,297.867798
	C190.677750,304.975281 186.380127,312.128662 182.024261,319.630554
	C145.645767,320.000000 109.291542,320.000000 72.468323,319.630676
	C80.072174,305.933075 88.007416,292.519073 96.247307,279.294830
	C112.020271,253.980804 128.066711,228.837036 143.815613,203.508163
	C163.967697,171.097717 183.974030,138.596344 203.924637,106.061485
	C205.709915,103.150093 207.540009,101.906906 211.107239,101.910843
	C311.738068,102.021736 412.369049,102.000015 513.000000,102.000000
	C513.000000,103.066673 513.000000,104.133339 513.000000,105.600006
z"/>
</svg>