<?xml version="1.0" encoding="UTF-8"?>
<svg id="Layer_1" data-name="Layer 1" xmlns="http://www.w3.org/2000/svg" viewBox="0 0 1920 1080">
  <defs>
    <style>
      .cls-1 {
        fill: #d84c3b;
      }

      .cls-1, .cls-2, .cls-3, .cls-4, .cls-5 {
        stroke-width: 0px;
      }

      .cls-6 {
        letter-spacing: .02em;
      }

      .cls-2 {
        fill: #f4d45b;
      }

      .cls-3 {
        fill: #e08b86;
      }

      .cls-7 {
        letter-spacing: 0em;
      }

      .cls-8 {
        letter-spacing: 0em;
      }

      .cls-9 {
        letter-spacing: -.04em;
      }

      .cls-10 {
        font-family: 'FernVariableRoman_720.000wght_8.000opsz_0ital', 'Fern Variable';
        font-size: 144.83px;
        font-variation-settings: 'wght' 720, 'opsz' 8;
      }

      .cls-11 {
        letter-spacing: 0em;
      }

      .cls-4 {
        fill: #66c2b3;
      }

      .cls-12 {
        letter-spacing: -.03em;
      }

      .cls-13 {
        letter-spacing: .02em;
      }

      .cls-14 {
        letter-spacing: 0em;
      }

      .cls-15 {
        letter-spacing: -.04em;
      }

      .cls-5 {
        fill: #e87c3c;
      }

      .cls-16 {
        letter-spacing: -.03em;
      }
    </style>
  </defs>
  <rect class="cls-3" x="-11.55" y="-12.07" width="1949.33" height="1092.07"/>
  <path class="cls-1" d="M-11.55-153.06C130.71,49.85,153.44,210.52,148.45,318.94c-9.11,197.78-111.02,232.98-98.67,432,12.01,193.58,116.09,283.65,64,421.33-27.97,73.93-85.41,120.46-125.33,146.67"/>
  <path class="cls-5" d="M25.78-153.06C168.04,49.85,190.78,210.52,185.78,318.94c-9.11,197.78-111.02,232.98-98.67,432,12.01,193.58,116.09,283.65,64,421.33-27.97,73.93-85.41,120.46-125.33,146.67"/>
  <path class="cls-2" d="M63.11-153.06C205.37,49.85,228.11,210.52,223.11,318.94c-9.11,197.78-111.02,232.98-98.67,432,12.01,193.58,116.09,283.65,64,421.33-27.97,73.93-85.41,120.46-125.33,146.67"/>
  <path class="cls-4" d="M100.45-153.06C242.71,49.85,265.44,210.52,260.45,318.94c-9.11,197.78-111.02,232.98-98.67,432,12.01,193.58,116.09,283.65,64,421.33-27.97,73.93-85.41,120.46-125.33,146.67"/>
  <path class="cls-1" d="M137.78-153.06c142.26,202.91,164.99,363.58,160,472-9.11,197.78-111.02,232.98-98.67,432,12.01,193.58,116.09,283.65,64,421.33-27.97,73.93-85.41,120.46-125.33,146.67"/>
  <path class="cls-5" d="M175.11-153.06c142.26,202.91,164.99,363.58,160,472-9.11,197.78-111.02,232.98-98.67,432,12.01,193.58,116.09,283.65,64,421.33-27.97,73.93-85.41,120.46-125.33,146.67"/>
  <path class="cls-2" d="M212.45-153.06c142.26,202.91,164.99,363.58,160,472-9.11,197.78-111.02,232.98-98.67,432,12.01,193.58,116.09,283.65,64,421.33-27.97,73.93-85.41,120.46-125.33,146.67"/>
  <path class="cls-4" d="M249.78-153.06c142.26,202.91,164.99,363.58,160,472-9.11,197.78-111.02,232.98-98.67,432,12.01,193.58,116.09,283.65,64,421.33-27.97,73.93-85.41,120.46-125.33,146.67"/>
  <path class="cls-1" d="M287.11-153.06c142.26,202.91,164.99,363.58,160,472-9.11,197.78-111.02,232.98-98.67,432,12.01,193.58,116.09,283.65,64,421.33-27.97,73.93-85.41,120.46-125.33,146.67"/>
  <path class="cls-5" d="M324.45-153.06c142.26,202.91,164.99,363.58,160,472-9.11,197.78-111.02,232.98-98.67,432,12.01,193.58,116.09,283.65,64,421.33-27.97,73.93-85.41,120.46-125.33,146.67"/>
  <path class="cls-2" d="M361.78-153.06c142.26,202.91,164.99,363.58,160,472-9.11,197.78-111.02,232.98-98.67,432,12.01,193.58,116.09,283.65,64,421.33-27.97,73.93-85.41,120.46-125.33,146.67"/>
  <path class="cls-4" d="M399.11-153.06c142.26,202.91,164.99,363.58,160,472-9.11,197.78-111.02,232.98-98.67,432,12.01,193.58,116.09,283.65,64,421.33-27.97,73.93-85.41,120.46-125.33,146.67"/>
  <text class="cls-10" transform="translate(705.19 334.39)"><tspan class="cls-6" x="0" y="0">R</tspan><tspan class="cls-15" x="112.82" y="0">h</tspan><tspan class="cls-13" x="204.38" y="0">y</tspan><tspan class="cls-8" x="289.9" y="0">t</tspan><tspan class="cls-7" x="351.83" y="0">h</tspan><tspan class="cls-12" x="447.94" y="0">m</tspan><tspan class="cls-16" x="582.89" y="0">G</tspan><tspan class="cls-11" x="696.87" y="0">a</tspan><tspan class="cls-9" x="777.69" y="0">m</tspan><tspan class="cls-14" x="912.1" y="0">e</tspan></text>
</svg>